<svg width="202" height="56" viewBox="0 0 202 56" fill="none" xmlns="http://www.w3.org/2000/svg">
<path d="M78.5864 32.7041V36H69.1138V32.7041H78.5864ZM70.6396 18.2266V36H66.355V18.2266H70.6396ZM77.3657 25.2822V28.4683H69.1138V25.2822H77.3657ZM78.623 18.2266V21.5347H69.1138V18.2266H78.623ZM86.1182 36H82.1753L82.1997 32.7041H86.1182C86.932 32.7041 87.6196 32.5088 88.1812 32.1182C88.7508 31.7275 89.1821 31.1457 89.4751 30.3726C89.7762 29.5913 89.9268 28.631 89.9268 27.4917V26.7227C89.9268 25.8682 89.8413 25.1195 89.6704 24.4766C89.5076 23.8255 89.2635 23.2843 88.938 22.853C88.6125 22.4136 88.2056 22.084 87.7173 21.8643C87.2371 21.6445 86.6838 21.5347 86.0571 21.5347H82.1021V18.2266H86.0571C87.2616 18.2266 88.3643 18.4341 89.3652 18.8491C90.3743 19.256 91.2451 19.842 91.9775 20.6069C92.7181 21.3638 93.2878 22.263 93.6865 23.3047C94.0934 24.3382 94.2969 25.4857 94.2969 26.7471V27.4917C94.2969 28.745 94.0934 29.8924 93.6865 30.9341C93.2878 31.9757 92.7222 32.875 91.9897 33.6318C91.2573 34.3887 90.3906 34.9746 89.3896 35.3896C88.3968 35.7965 87.3063 36 86.1182 36ZM84.6289 18.2266V36H80.3442V18.2266H84.6289ZM111.069 26.5029V33.8027C110.768 34.1364 110.304 34.4945 109.678 34.877C109.059 35.2513 108.278 35.5728 107.334 35.8413C106.39 36.1099 105.279 36.2441 104.001 36.2441C102.821 36.2441 101.751 36.057 100.791 35.6826C99.8307 35.3001 99.0047 34.7427 98.313 34.0103C97.6294 33.2697 97.1004 32.3664 96.7261 31.3003C96.3599 30.2261 96.1768 28.9972 96.1768 27.6138V26.625C96.1768 25.2415 96.3639 24.0127 96.7383 22.9385C97.1126 21.8643 97.6375 20.9609 98.313 20.2285C98.9966 19.488 99.7982 18.9264 100.718 18.5439C101.646 18.1615 102.663 17.9702 103.77 17.9702C105.405 17.9702 106.736 18.2306 107.761 18.7515C108.787 19.2642 109.564 19.9762 110.093 20.8877C110.622 21.791 110.943 22.8368 111.057 24.0249H106.943C106.862 23.439 106.707 22.9425 106.479 22.5356C106.26 22.1206 105.942 21.8073 105.527 21.5957C105.112 21.376 104.575 21.2661 103.916 21.2661C103.403 21.2661 102.935 21.376 102.512 21.5957C102.097 21.8154 101.743 22.1491 101.45 22.5967C101.157 23.0361 100.929 23.5895 100.767 24.2568C100.612 24.9242 100.535 25.7054 100.535 26.6006V27.6138C100.535 28.5008 100.608 29.278 100.754 29.9453C100.909 30.6126 101.137 31.1701 101.438 31.6177C101.747 32.0571 102.138 32.3908 102.61 32.6187C103.09 32.8384 103.656 32.9482 104.307 32.9482C104.762 32.9482 105.153 32.9116 105.479 32.8384C105.804 32.757 106.073 32.6593 106.284 32.5454C106.504 32.4233 106.671 32.3094 106.785 32.2036V29.4448H103.806V26.5029H111.069ZM125.803 32.7041V36H116.331V32.7041H125.803ZM117.856 18.2266V36H113.572V18.2266H117.856ZM124.583 25.2822V28.4683H116.331V25.2822H124.583ZM125.84 18.2266V21.5347H116.331V18.2266H125.84ZM148.63 18.2266V36H144.358L138.071 24.9404V36H133.787V18.2266H138.071L144.358 29.2861V18.2266H148.63ZM163.572 32.7041V36H154.099V32.7041H163.572ZM155.625 18.2266V36H151.34V18.2266H155.625ZM162.351 25.2822V28.4683H154.099V25.2822H162.351ZM163.608 18.2266V21.5347H154.099V18.2266H163.608ZM169.431 34.3887L172.971 18.2266H175.083L176.23 19.606L172.458 36H170.127L169.431 34.3887ZM168.491 18.2266L171.482 34.5107L170.713 36H168.015L164.243 18.2266H168.491ZM178.171 34.4253L181.138 18.2266H185.374L181.602 36H178.916L178.171 34.4253ZM176.609 18.2266L180.234 34.4863L179.502 36H177.17L173.313 19.5815L174.509 18.2266H176.609ZM196.213 31.2759C196.213 30.9992 196.173 30.751 196.091 30.5312C196.01 30.3034 195.859 30.0918 195.64 29.8965C195.42 29.7012 195.103 29.5059 194.688 29.3105C194.281 29.1071 193.743 28.8955 193.076 28.6758C192.295 28.4154 191.542 28.1224 190.818 27.7969C190.094 27.4632 189.447 27.0767 188.877 26.6372C188.307 26.1896 187.856 25.6688 187.522 25.0747C187.188 24.4725 187.021 23.7726 187.021 22.9751C187.021 22.2101 187.192 21.5225 187.534 20.9121C187.876 20.2936 188.352 19.7687 188.962 19.3374C189.581 18.8979 190.305 18.5643 191.135 18.3364C191.965 18.1004 192.873 17.9824 193.857 17.9824C195.16 17.9824 196.307 18.2103 197.3 18.666C198.301 19.1136 199.082 19.7524 199.644 20.5825C200.213 21.4045 200.498 22.377 200.498 23.5H196.238C196.238 23.0524 196.144 22.6577 195.957 22.3159C195.778 21.9741 195.505 21.7056 195.139 21.5103C194.773 21.3149 194.313 21.2173 193.76 21.2173C193.223 21.2173 192.771 21.2987 192.405 21.4614C192.039 21.6242 191.762 21.8439 191.575 22.1206C191.388 22.3892 191.294 22.6862 191.294 23.0117C191.294 23.2803 191.367 23.5244 191.514 23.7441C191.668 23.9557 191.884 24.1551 192.161 24.3423C192.445 24.5295 192.787 24.7085 193.186 24.8794C193.593 25.0503 194.049 25.2171 194.553 25.3799C195.497 25.681 196.335 26.0187 197.068 26.3931C197.808 26.7593 198.431 27.1784 198.936 27.6504C199.448 28.1143 199.835 28.6432 200.095 29.2373C200.364 29.8314 200.498 30.5028 200.498 31.2515C200.498 32.049 200.343 32.757 200.034 33.3755C199.725 33.994 199.281 34.5189 198.704 34.9502C198.126 35.3734 197.434 35.6948 196.628 35.9146C195.823 36.1343 194.924 36.2441 193.931 36.2441C193.019 36.2441 192.12 36.1302 191.233 35.9023C190.354 35.6663 189.556 35.3083 188.84 34.8281C188.124 34.3398 187.55 33.7173 187.119 32.9604C186.696 32.1955 186.484 31.2881 186.484 30.2383H190.781C190.781 30.7591 190.85 31.1986 190.989 31.5566C191.127 31.9147 191.331 32.2036 191.599 32.4233C191.868 32.6349 192.197 32.7896 192.588 32.8872C192.979 32.9767 193.426 33.0215 193.931 33.0215C194.476 33.0215 194.915 32.9442 195.249 32.7896C195.583 32.6268 195.827 32.4152 195.981 32.1548C196.136 31.8862 196.213 31.5933 196.213 31.2759Z" fill="#111111"/>
<circle cx="27.7451" cy="27.7451" r="27.7451" fill="#FDFCFB"/>
<path d="M45.2851 18.548C45.2851 18.548 -15.3748 55.1575 22.8392 18.548C61.0531 -18.0616 31.236 80.7677 18.8926 30.9314C6.54918 -18.9048 33.4749 37.5732 42.8185 41.8289" stroke="#111111" stroke-width="3"/>
</svg>
