<svg width="306" height="87" viewBox="0 0 306 87" fill="none" xmlns="http://www.w3.org/2000/svg">
<path d="M124.108 51.1221V56H110.088V51.1221H124.108ZM112.347 29.6953V56H106.005V29.6953H112.347ZM122.301 40.1377V44.853H110.088V40.1377H122.301ZM124.162 29.6953V34.5913H110.088V29.6953H124.162ZM135.255 56H129.419L129.456 51.1221H135.255C136.459 51.1221 137.477 50.833 138.308 50.2549C139.151 49.6768 139.79 48.8156 140.223 47.6714C140.669 46.5151 140.892 45.0939 140.892 43.4077V42.2695C140.892 41.0049 140.765 39.8968 140.512 38.9453C140.271 37.9818 139.91 37.1808 139.428 36.5425C138.946 35.8921 138.344 35.4043 137.622 35.0791C136.911 34.7539 136.092 34.5913 135.165 34.5913H129.311V29.6953H135.165C136.947 29.6953 138.579 30.0024 140.061 30.6167C141.554 31.2189 142.843 32.0861 143.927 33.2183C145.023 34.3384 145.866 35.6693 146.456 37.2109C147.058 38.7406 147.359 40.4388 147.359 42.3057V43.4077C147.359 45.2625 147.058 46.9608 146.456 48.5024C145.866 50.0441 145.029 51.375 143.945 52.4951C142.861 53.6152 141.578 54.4824 140.097 55.0967C138.627 55.6989 137.013 56 135.255 56ZM133.051 29.6953V56H126.709V29.6953H133.051ZM172.183 41.9443V52.748C171.737 53.2419 171.05 53.7718 170.123 54.3379C169.208 54.8919 168.051 55.3677 166.654 55.7651C165.257 56.1626 163.613 56.3613 161.722 56.3613C159.976 56.3613 158.392 56.0843 156.971 55.5303C155.549 54.9642 154.327 54.1392 153.303 53.0552C152.292 51.9591 151.509 50.6222 150.955 49.0444C150.413 47.4546 150.142 45.6359 150.142 43.5884V42.125C150.142 40.0775 150.419 38.2588 150.973 36.6689C151.527 35.0791 152.304 33.7422 153.303 32.6582C154.315 31.5622 155.501 30.7311 156.862 30.165C158.235 29.599 159.741 29.3159 161.379 29.3159C163.8 29.3159 165.769 29.7013 167.287 30.4722C168.804 31.231 169.954 32.2848 170.737 33.6338C171.52 34.9707 171.996 36.5184 172.165 38.2769H166.076C165.956 37.4097 165.727 36.675 165.39 36.0728C165.064 35.4585 164.595 34.9948 163.98 34.6816C163.366 34.3564 162.571 34.1938 161.596 34.1938C160.837 34.1938 160.144 34.3564 159.518 34.6816C158.904 35.0068 158.38 35.5007 157.946 36.1631C157.513 36.8135 157.175 37.6325 156.935 38.6201C156.706 39.6077 156.591 40.764 156.591 42.0889V43.5884C156.591 44.9012 156.7 46.0514 156.917 47.0391C157.145 48.0267 157.483 48.8517 157.928 49.5142C158.386 50.1646 158.964 50.6584 159.663 50.9956C160.373 51.3208 161.21 51.4834 162.174 51.4834C162.848 51.4834 163.426 51.4292 163.908 51.3208C164.39 51.2004 164.787 51.0558 165.101 50.8872C165.426 50.7065 165.673 50.5379 165.841 50.3813V46.2983H161.433V41.9443H172.183ZM193.989 51.1221V56H179.969V51.1221H193.989ZM182.228 29.6953V56H175.886V29.6953H182.228ZM192.182 40.1377V44.853H179.969V40.1377H192.182ZM194.043 29.6953V34.5913H179.969V29.6953H194.043ZM227.773 29.6953V56H221.45L212.146 39.6318V56H205.804V29.6953H212.146L221.45 46.0635V29.6953H227.773ZM249.886 51.1221V56H235.867V51.1221H249.886ZM238.125 29.6953V56H231.784V29.6953H238.125ZM248.08 40.1377V44.853H235.867V40.1377H248.08ZM249.94 29.6953V34.5913H235.867V29.6953H249.94ZM258.558 53.6152L263.797 29.6953H266.923L268.621 31.7368L263.039 56H259.588L258.558 53.6152ZM257.167 29.6953L261.593 53.7959L260.455 56H256.462L250.88 29.6953H257.167ZM271.494 53.6694L275.884 29.6953H282.153L276.57 56H272.596L271.494 53.6694ZM269.181 29.6953L274.547 53.7598L273.463 56H270.012L264.303 31.7007L266.074 29.6953H269.181ZM298.196 49.0083C298.196 48.5988 298.136 48.2314 298.015 47.9062C297.895 47.569 297.672 47.2559 297.347 46.9668C297.021 46.6777 296.552 46.3887 295.938 46.0996C295.335 45.7985 294.54 45.4854 293.553 45.1602C292.396 44.7747 291.282 44.3411 290.21 43.8594C289.139 43.3656 288.181 42.7935 287.338 42.1431C286.495 41.4806 285.826 40.7098 285.333 39.8306C284.839 38.9393 284.592 37.9035 284.592 36.7231C284.592 35.591 284.845 34.5732 285.351 33.6699C285.856 32.7546 286.561 31.9777 287.464 31.3394C288.38 30.689 289.452 30.1951 290.68 29.8579C291.909 29.5086 293.252 29.334 294.709 29.334C296.636 29.334 298.334 29.6712 299.804 30.3457C301.285 31.0081 302.441 31.9536 303.272 33.1821C304.116 34.3986 304.537 35.8379 304.537 37.5H298.232C298.232 36.8376 298.093 36.2534 297.816 35.7476C297.551 35.2417 297.148 34.8442 296.606 34.5552C296.064 34.2661 295.383 34.1216 294.564 34.1216C293.77 34.1216 293.101 34.242 292.559 34.4829C292.017 34.7238 291.608 35.049 291.331 35.4585C291.054 35.856 290.915 36.2956 290.915 36.7773C290.915 37.1748 291.023 37.5361 291.24 37.8613C291.469 38.1745 291.788 38.4696 292.198 38.7466C292.619 39.0236 293.125 39.2886 293.715 39.5415C294.318 39.7944 294.992 40.0413 295.739 40.2822C297.136 40.7279 298.376 41.2277 299.46 41.7817C300.556 42.3237 301.478 42.944 302.225 43.6426C302.983 44.3291 303.556 45.112 303.941 45.9912C304.338 46.8704 304.537 47.8641 304.537 48.9722C304.537 50.1525 304.308 51.2004 303.851 52.1157C303.393 53.0311 302.736 53.8079 301.881 54.4463C301.026 55.0726 300.002 55.5483 298.81 55.8735C297.618 56.1987 296.287 56.3613 294.817 56.3613C293.468 56.3613 292.138 56.1927 290.825 55.8555C289.524 55.5062 288.344 54.9762 287.284 54.2656C286.224 53.543 285.375 52.6216 284.736 51.5015C284.11 50.3693 283.797 49.0264 283.797 47.4727H290.156C290.156 48.2435 290.259 48.8939 290.463 49.4238C290.668 49.9538 290.969 50.3813 291.367 50.7065C291.764 51.0197 292.252 51.2485 292.83 51.3931C293.408 51.5256 294.071 51.5918 294.817 51.5918C295.624 51.5918 296.275 51.4774 296.769 51.2485C297.262 51.0076 297.624 50.6945 297.853 50.3091C298.081 49.9116 298.196 49.478 298.196 49.0083Z" fill="#111111"/>
<circle cx="43.5" cy="43.5" r="43.5" fill="#C7B9FF"/>
<path d="M71 29.0712C71 29.0712 -24.1052 86.4692 35.8082 29.0712C95.7217 -28.3269 48.9733 126.622 29.6207 48.4865C10.2681 -29.6489 52.4834 58.8997 67.1328 65.572" stroke="#F24E1E" stroke-width="5"/>
</svg>
